<mxfile host="app.diagrams.net" modified="2023-10-20T17:24:43.816Z" agent="Mozilla/5.0 (X11; Linux x86_64; rv:109.0) Gecko/20100101 Firefox/112.0" etag="PyqcGXwND1xCbBt-wi9i" version="21.6.9" type="github">
  <diagram name="Page-1" id="efa7a0a1-bf9b-a30e-e6df-94a7791c09e9">
    <mxGraphModel dx="1674" dy="767" grid="1" gridSize="10" guides="1" tooltips="1" connect="1" arrows="1" fold="1" page="1" pageScale="1" pageWidth="826" pageHeight="1169" background="none" math="0" shadow="0">
      <root>
        <mxCell id="0" />
        <mxCell id="1" parent="0" />
        <mxCell id="19" value="&lt;p style=&quot;margin: 0px; margin-top: 4px; text-align: center; text-decoration: underline;&quot;&gt;&lt;strong&gt;ministrar&lt;/strong&gt;&lt;br&gt;&lt;/p&gt;&lt;hr&gt;&lt;p style=&quot;margin: 0px; margin-left: 8px;&quot;&gt;Id_professores&lt;/p&gt;&lt;p style=&quot;margin: 0px; margin-left: 8px;&quot;&gt;id_aulas&lt;br&gt;&lt;/p&gt;" style="verticalAlign=top;align=left;overflow=fill;fontSize=12;fontFamily=Helvetica;html=1;strokeColor=#003366;shadow=1;fillColor=#D4E1F5;fontColor=#003366" parent="1" vertex="1">
          <mxGeometry x="310.0000000000001" y="91.64000000000044" width="160" height="120" as="geometry" />
        </mxCell>
        <mxCell id="20" value="&amp;nbsp;&amp;nbsp;&amp;nbsp;&amp;nbsp; professores&lt;br&gt;&lt;hr&gt;&lt;span style=&quot;white-space: pre;&quot;&gt;&#x9;&lt;/span&gt;id" style="verticalAlign=top;align=left;overflow=fill;fontSize=12;fontFamily=Helvetica;html=1;strokeColor=#003366;shadow=1;fillColor=#D4E1F5;fontColor=#003366" parent="1" vertex="1">
          <mxGeometry x="310" y="302.5" width="160" height="47.5" as="geometry" />
        </mxCell>
        <mxCell id="21" value="&lt;p style=&quot;margin: 0px; margin-top: 4px; text-align: center; text-decoration: underline;&quot;&gt;&lt;strong&gt;turmas&lt;br&gt;&lt;/strong&gt;&lt;/p&gt;&lt;hr&gt;&lt;p style=&quot;margin: 0px; margin-left: 8px;&quot;&gt;Id&lt;/p&gt;&lt;p style=&quot;margin: 0px; margin-left: 8px;&quot;&gt;id_escola&lt;br&gt;&lt;/p&gt;" style="verticalAlign=top;align=left;overflow=fill;fontSize=12;fontFamily=Helvetica;html=1;strokeColor=#003366;shadow=1;fillColor=#D4E1F5;fontColor=#003366" parent="1" vertex="1">
          <mxGeometry x="40" y="285" width="160" height="65" as="geometry" />
        </mxCell>
        <mxCell id="23" value="&amp;nbsp;&lt;span style=&quot;white-space: pre;&quot;&gt;&#x9;&lt;/span&gt;aulas&lt;br&gt;&lt;hr&gt;&lt;p style=&quot;margin: 0px; margin-left: 8px;&quot;&gt;id&lt;br&gt;&lt;/p&gt;" style="verticalAlign=top;align=left;overflow=fill;fontSize=12;fontFamily=Helvetica;html=1;strokeColor=#003366;shadow=1;fillColor=#D4E1F5;fontColor=#003366" parent="1" vertex="1">
          <mxGeometry x="591.08" y="101.64" width="160" height="58.36" as="geometry" />
        </mxCell>
        <mxCell id="24" value="&lt;span style=&quot;white-space: pre;&quot;&gt;&#x9;&lt;/span&gt;sala&lt;br&gt;&lt;hr&gt;&lt;p style=&quot;margin: 0px; margin-left: 8px;&quot;&gt;Id&lt;/p&gt;" style="verticalAlign=top;align=left;overflow=fill;fontSize=12;fontFamily=Helvetica;html=1;strokeColor=#003366;shadow=1;fillColor=#D4E1F5;fontColor=#003366" parent="1" vertex="1">
          <mxGeometry x="50" y="520" width="160" height="50" as="geometry" />
        </mxCell>
        <mxCell id="25" value="&lt;p style=&quot;margin: 0px; margin-top: 4px; text-align: center; text-decoration: underline;&quot;&gt;&lt;strong&gt;escola&lt;br&gt;&lt;/strong&gt;&lt;/p&gt;&lt;hr&gt;&lt;p style=&quot;margin: 0px; margin-left: 8px;&quot;&gt;Id&lt;/p&gt;" style="verticalAlign=top;align=left;overflow=fill;fontSize=12;fontFamily=Helvetica;html=1;strokeColor=#003366;shadow=1;fillColor=#D4E1F5;fontColor=#003366" parent="1" vertex="1">
          <mxGeometry x="40" y="21.64" width="160" height="58.36" as="geometry" />
        </mxCell>
        <mxCell id="36" value="" style="endArrow=open;endSize=12;startArrow=diamondThin;startSize=14;startFill=0;edgeStyle=orthogonalEdgeStyle;" parent="1" source="19" target="20" edge="1">
          <mxGeometry y="160" as="geometry">
            <mxPoint y="160" as="sourcePoint" />
            <mxPoint x="160" y="160" as="targetPoint" />
          </mxGeometry>
        </mxCell>
        <mxCell id="37" value="0..n" style="resizable=0;align=left;verticalAlign=top;labelBackgroundColor=#ffffff;fontSize=10;strokeColor=#003366;shadow=1;fillColor=#D4E1F5;fontColor=#003366" parent="36" connectable="0" vertex="1">
          <mxGeometry x="-1" relative="1" as="geometry">
            <mxPoint x="10" as="offset" />
          </mxGeometry>
        </mxCell>
        <mxCell id="90" value="" style="endArrow=open;endSize=12;startArrow=diamondThin;startSize=14;startFill=0;edgeStyle=orthogonalEdgeStyle" parent="1" source="25" target="21" edge="1">
          <mxGeometry x="620" y="340" as="geometry">
            <mxPoint x="620" y="340" as="sourcePoint" />
            <mxPoint x="780" y="340" as="targetPoint" />
          </mxGeometry>
        </mxCell>
        <mxCell id="91" value="0..n" style="resizable=0;align=left;verticalAlign=top;labelBackgroundColor=#ffffff;fontSize=10;strokeColor=#003366;shadow=1;fillColor=#D4E1F5;fontColor=#003366" parent="90" connectable="0" vertex="1">
          <mxGeometry x="-1" relative="1" as="geometry">
            <mxPoint x="10" as="offset" />
          </mxGeometry>
        </mxCell>
        <mxCell id="92" value="1" style="resizable=0;align=right;verticalAlign=top;labelBackgroundColor=#ffffff;fontSize=10;strokeColor=#003366;shadow=1;fillColor=#D4E1F5;fontColor=#003366" parent="90" connectable="0" vertex="1">
          <mxGeometry x="1" relative="1" as="geometry">
            <mxPoint x="20" y="-24.99999999999981" as="offset" />
          </mxGeometry>
        </mxCell>
        <mxCell id="103" value="1" style="endArrow=open;endSize=12;startArrow=diamondThin;startSize=14;startFill=1;edgeStyle=orthogonalEdgeStyle;align=left;verticalAlign=bottom;entryX=0;entryY=0.5;entryDx=0;entryDy=0;" parent="1" source="21" target="20" edge="1">
          <mxGeometry x="-0.8181818181818175" y="4.999999999999702" relative="1" as="geometry">
            <mxPoint x="80" y="510" as="sourcePoint" />
            <mxPoint x="270" y="380" as="targetPoint" />
            <mxPoint as="offset" />
          </mxGeometry>
        </mxCell>
        <mxCell id="kRfzMgGhAG_8_zKN7w-W-114" value="" style="endArrow=open;endSize=12;startArrow=diamondThin;startSize=14;startFill=0;edgeStyle=orthogonalEdgeStyle;exitX=0.5;exitY=1;exitDx=0;exitDy=0;entryX=0.5;entryY=0;entryDx=0;entryDy=0;" edge="1" parent="1" source="21" target="24">
          <mxGeometry x="620" y="340" as="geometry">
            <mxPoint x="119.5" y="380" as="sourcePoint" />
            <mxPoint x="120" y="610" as="targetPoint" />
          </mxGeometry>
        </mxCell>
        <mxCell id="kRfzMgGhAG_8_zKN7w-W-115" value="0..n" style="resizable=0;align=left;verticalAlign=top;labelBackgroundColor=#ffffff;fontSize=10;strokeColor=#003366;shadow=1;fillColor=#D4E1F5;fontColor=#003366" connectable="0" vertex="1" parent="kRfzMgGhAG_8_zKN7w-W-114">
          <mxGeometry x="-1" relative="1" as="geometry">
            <mxPoint x="10" as="offset" />
          </mxGeometry>
        </mxCell>
        <mxCell id="kRfzMgGhAG_8_zKN7w-W-116" value="1" style="resizable=0;align=right;verticalAlign=top;labelBackgroundColor=#ffffff;fontSize=10;strokeColor=#003366;shadow=1;fillColor=#D4E1F5;fontColor=#003366" connectable="0" vertex="1" parent="kRfzMgGhAG_8_zKN7w-W-114">
          <mxGeometry x="1" relative="1" as="geometry">
            <mxPoint x="20" y="-24.99999999999981" as="offset" />
          </mxGeometry>
        </mxCell>
        <mxCell id="kRfzMgGhAG_8_zKN7w-W-117" value="" style="endArrow=open;endSize=12;startArrow=diamondThin;startSize=14;startFill=0;edgeStyle=orthogonalEdgeStyle;exitX=1;exitY=0.57;exitDx=0;exitDy=0;exitPerimeter=0;entryX=0;entryY=0.75;entryDx=0;entryDy=0;" edge="1" parent="1" source="19" target="23">
          <mxGeometry x="620" y="340" as="geometry">
            <mxPoint x="550" y="260" as="sourcePoint" />
            <mxPoint x="570" y="170" as="targetPoint" />
          </mxGeometry>
        </mxCell>
        <mxCell id="kRfzMgGhAG_8_zKN7w-W-118" value="0..n" style="resizable=0;align=left;verticalAlign=top;labelBackgroundColor=#ffffff;fontSize=10;strokeColor=#003366;shadow=1;fillColor=#D4E1F5;fontColor=#003366" connectable="0" vertex="1" parent="kRfzMgGhAG_8_zKN7w-W-117">
          <mxGeometry x="-1" relative="1" as="geometry">
            <mxPoint x="10" as="offset" />
          </mxGeometry>
        </mxCell>
        <mxCell id="kRfzMgGhAG_8_zKN7w-W-119" value="1" style="resizable=0;align=right;verticalAlign=top;labelBackgroundColor=#ffffff;fontSize=10;strokeColor=#003366;shadow=1;fillColor=#D4E1F5;fontColor=#003366" connectable="0" vertex="1" parent="kRfzMgGhAG_8_zKN7w-W-117">
          <mxGeometry x="1" relative="1" as="geometry">
            <mxPoint x="20" y="-24.99999999999981" as="offset" />
          </mxGeometry>
        </mxCell>
      </root>
    </mxGraphModel>
  </diagram>
</mxfile>
